<svg width="45" height="24" viewBox="0 0 45 24" fill="none" xmlns="http://www.w3.org/2000/svg">
<g clip-path="url(#clip0_1906_221)">
<path d="M1.40401 18.4227C1.20282 18.0905 0.934563 17.5599 0.768873 17.167C-0.197647 14.8662 -0.241042 12.4843 0.571624 10.1997C1.46714 7.69232 3.17925 5.77633 5.39239 4.79606C8.1736 3.56869 11.2467 3.80768 13.9135 5.43202C15.6059 6.4285 16.8052 7.96777 17.7165 10.1471C17.8309 10.4266 17.9335 10.7223 18.0361 10.9775L1.40401 18.4227ZM6.95855 8.49437C4.98211 9.36527 3.96431 11.2691 4.17734 13.497L12.5407 9.7987C11.1008 8.06499 9.23086 7.48979 6.95855 8.49437V8.49437ZM13.5822 16.5391C13.5782 16.5391 13.5782 16.5432 13.5782 16.5432L13.4046 16.4216C12.9036 17.252 12.1265 17.9285 11.1442 18.366C9.27425 19.2004 7.5424 18.9857 6.29579 17.8637L6.18138 18.0419C6.18138 18.0419 6.18139 18.0379 6.17744 18.0379L4.05504 21.2987C4.58367 21.6754 5.1478 21.9914 5.73955 22.2466C8.08287 23.2471 10.4814 23.1985 12.8445 22.1453C14.5526 21.3838 15.8939 20.2253 16.8092 18.7548L13.5822 16.5391ZM23.847 0V18.1229L26.5927 19.2652L25.0344 23L22.0047 21.7038C21.3262 21.4 20.8607 20.9382 20.5135 20.4156C20.1782 19.885 19.9296 19.1518 19.9296 18.1715V0H23.847ZM30.9559 13.5092C30.9559 11.9658 31.6226 10.5805 32.6719 9.64072L29.8552 6.41634C27.9458 8.15005 26.7426 10.6818 26.7426 13.5011C26.7387 16.3244 27.9419 18.8602 29.8473 20.5939L32.6601 17.3695C31.6147 16.4257 30.9559 15.0484 30.9559 13.5092V13.5092ZM35.9581 18.6495C35.4058 18.6495 34.8693 18.5523 34.3722 18.3822L33.027 22.4856C33.9462 22.8015 34.9285 22.9757 35.9542 22.9757C40.412 22.9797 44.1321 19.7311 44.996 15.417L40.8617 14.5502C40.3923 16.8956 38.3764 18.6536 35.9581 18.6495V18.6495ZM35.9699 4.04262C34.9482 4.04262 33.9659 4.21275 33.0467 4.52466L34.3801 8.63209C34.8811 8.46196 35.4137 8.36879 35.966 8.36879C38.3882 8.37284 40.408 10.139 40.8657 12.4884L45 11.6296C44.1518 7.3075 40.4317 4.04667 35.9699 4.04262V4.04262Z" fill="white"/>
</g>
<defs>
<clipPath id="clip0_1906_221">
<rect width="45" height="23" fill="white" transform="translate(0 0.191406)"/>
</clipPath>
</defs>
</svg>
